G04 #@! TF.GenerationSoftware,KiCad,Pcbnew,(5.0.0)*
G04 #@! TF.CreationDate,2018-11-13T08:44:11+01:00*
G04 #@! TF.ProjectId,UNO,554E4F2E6B696361645F706362000000,rev?*
G04 #@! TF.SameCoordinates,Original*
G04 #@! TF.FileFunction,Copper,L1,Top,Signal*
G04 #@! TF.FilePolarity,Positive*
%FSLAX46Y46*%
G04 Gerber Fmt 4.6, Leading zero omitted, Abs format (unit mm)*
G04 Created by KiCad (PCBNEW (5.0.0)) date 11/13/18 08:44:11*
%MOMM*%
%LPD*%
G01*
G04 APERTURE LIST*
G04 #@! TA.AperFunction,ComponentPad*
%ADD10O,2.400000X1.600000*%
G04 #@! TD*
G04 #@! TA.AperFunction,ComponentPad*
%ADD11R,2.400000X1.600000*%
G04 #@! TD*
G04 #@! TA.AperFunction,ComponentPad*
%ADD12C,1.524000*%
G04 #@! TD*
G04 #@! TA.AperFunction,ComponentPad*
%ADD13R,1.524000X1.524000*%
G04 #@! TD*
G04 #@! TA.AperFunction,ComponentPad*
%ADD14R,2.524000X1.524000*%
G04 #@! TD*
G04 #@! TA.AperFunction,ComponentPad*
%ADD15O,2.524000X1.524000*%
G04 #@! TD*
G04 #@! TA.AperFunction,ComponentPad*
%ADD16O,1.727200X2.032000*%
G04 #@! TD*
G04 #@! TA.AperFunction,ComponentPad*
%ADD17C,4.064000*%
G04 #@! TD*
G04 #@! TA.AperFunction,ComponentPad*
%ADD18C,1.600000*%
G04 #@! TD*
G04 #@! TA.AperFunction,ComponentPad*
%ADD19O,1.400000X1.400000*%
G04 #@! TD*
G04 #@! TA.AperFunction,ComponentPad*
%ADD20C,1.400000*%
G04 #@! TD*
G04 #@! TA.AperFunction,ComponentPad*
%ADD21R,1.800000X1.800000*%
G04 #@! TD*
G04 #@! TA.AperFunction,ComponentPad*
%ADD22O,1.800000X1.800000*%
G04 #@! TD*
G04 #@! TA.AperFunction,Conductor*
%ADD23C,0.800000*%
G04 #@! TD*
G04 APERTURE END LIST*
D10*
G04 #@! TO.P,J1,4*
G04 #@! TO.N,GND*
X150368000Y-108705000D03*
G04 #@! TO.P,J1,3*
G04 #@! TO.N,3V3*
X150368000Y-111205000D03*
G04 #@! TO.P,J1,2*
G04 #@! TO.N,/Analog2*
X150368000Y-113705000D03*
D11*
G04 #@! TO.P,J1,1*
G04 #@! TO.N,/A0*
X150368000Y-116205000D03*
G04 #@! TD*
D12*
G04 #@! TO.P,J2,2*
G04 #@! TO.N,GND*
X169418000Y-84375000D03*
D13*
G04 #@! TO.P,J2,1*
G04 #@! TO.N,/2*
X169418000Y-79375000D03*
G04 #@! TD*
D14*
G04 #@! TO.P,U10,1*
G04 #@! TO.N,/7*
X117983000Y-118110000D03*
D15*
G04 #@! TO.P,U10,2*
G04 #@! TO.N,/8*
X117983000Y-115570000D03*
G04 #@! TO.P,U10,3*
G04 #@! TO.N,Net-(U10-Pad3)*
X117983000Y-113030000D03*
G04 #@! TO.P,U10,4*
G04 #@! TO.N,Net-(U10-Pad4)*
X117983000Y-110490000D03*
G04 #@! TO.P,U10,5*
G04 #@! TO.N,/Reset*
X117983000Y-107950000D03*
G04 #@! TO.P,U10,6*
G04 #@! TO.N,3V3*
X117983000Y-105410000D03*
G04 #@! TO.P,U10,7*
G04 #@! TO.N,Net-(U10-Pad7)*
X117983000Y-102870000D03*
G04 #@! TO.P,U10,8*
G04 #@! TO.N,GND*
X117983000Y-100330000D03*
G04 #@! TD*
D16*
G04 #@! TO.P,P1,8*
G04 #@! TO.N,/Vin*
X156718000Y-123825000D03*
G04 #@! TO.P,P1,7*
G04 #@! TO.N,GND*
X154178000Y-123825000D03*
G04 #@! TO.P,P1,6*
X151638000Y-123825000D03*
G04 #@! TO.P,P1,5*
G04 #@! TO.N,5V*
X149098000Y-123825000D03*
G04 #@! TO.P,P1,4*
G04 #@! TO.N,3V3*
X146558000Y-123825000D03*
G04 #@! TO.P,P1,3*
G04 #@! TO.N,/Reset*
X144018000Y-123825000D03*
G04 #@! TO.P,P1,2*
G04 #@! TO.N,/IOREF*
X141478000Y-123825000D03*
G04 #@! TO.P,P1,1*
G04 #@! TO.N,Net-(P1-Pad1)*
X138938000Y-123825000D03*
G04 #@! TD*
G04 #@! TO.P,P2,6*
G04 #@! TO.N,/A5*
X174498000Y-123825000D03*
G04 #@! TO.P,P2,5*
G04 #@! TO.N,/A4*
X171958000Y-123825000D03*
G04 #@! TO.P,P2,4*
G04 #@! TO.N,/A3*
X169418000Y-123825000D03*
G04 #@! TO.P,P2,3*
G04 #@! TO.N,/A2*
X166878000Y-123825000D03*
G04 #@! TO.P,P2,2*
G04 #@! TO.N,/A1*
X164338000Y-123825000D03*
G04 #@! TO.P,P2,1*
G04 #@! TO.N,/A0*
X161798000Y-123825000D03*
G04 #@! TD*
G04 #@! TO.P,P3,10*
G04 #@! TO.N,/8*
X152654000Y-75565000D03*
G04 #@! TO.P,P3,9*
G04 #@! TO.N,/9(\002A\002A)*
X150114000Y-75565000D03*
G04 #@! TO.P,P3,8*
G04 #@! TO.N,/10(\002A\002A/SS)*
X147574000Y-75565000D03*
G04 #@! TO.P,P3,7*
G04 #@! TO.N,/11(\002A\002A/MOSI)*
X145034000Y-75565000D03*
G04 #@! TO.P,P3,6*
G04 #@! TO.N,/12(MISO)*
X142494000Y-75565000D03*
G04 #@! TO.P,P3,5*
G04 #@! TO.N,/13(SCK)*
X139954000Y-75565000D03*
G04 #@! TO.P,P3,4*
G04 #@! TO.N,GND*
X137414000Y-75565000D03*
G04 #@! TO.P,P3,3*
G04 #@! TO.N,/AREF*
X134874000Y-75565000D03*
G04 #@! TO.P,P3,2*
G04 #@! TO.N,/A4(SDA)*
X132334000Y-75565000D03*
G04 #@! TO.P,P3,1*
G04 #@! TO.N,/A5(SCL)*
X129794000Y-75565000D03*
G04 #@! TD*
G04 #@! TO.P,P4,8*
G04 #@! TO.N,/0(Rx)*
X174498000Y-75565000D03*
G04 #@! TO.P,P4,7*
G04 #@! TO.N,/1(Tx)*
X171958000Y-75565000D03*
G04 #@! TO.P,P4,6*
G04 #@! TO.N,/2*
X169418000Y-75565000D03*
G04 #@! TO.P,P4,5*
G04 #@! TO.N,/3(\002A\002A)*
X166878000Y-75565000D03*
G04 #@! TO.P,P4,4*
G04 #@! TO.N,/4*
X164338000Y-75565000D03*
G04 #@! TO.P,P4,3*
G04 #@! TO.N,/5(\002A\002A)*
X161798000Y-75565000D03*
G04 #@! TO.P,P4,2*
G04 #@! TO.N,/6(\002A\002A)*
X159258000Y-75565000D03*
G04 #@! TO.P,P4,1*
G04 #@! TO.N,/7*
X156718000Y-75565000D03*
G04 #@! TD*
D17*
G04 #@! TO.P,P5,1*
G04 #@! TO.N,Net-(P5-Pad1)*
X124968000Y-123825000D03*
G04 #@! TD*
G04 #@! TO.P,P6,1*
G04 #@! TO.N,Net-(P6-Pad1)*
X177038000Y-118745000D03*
G04 #@! TD*
G04 #@! TO.P,P7,1*
G04 #@! TO.N,Net-(P7-Pad1)*
X126238000Y-75565000D03*
G04 #@! TD*
G04 #@! TO.P,P8,1*
G04 #@! TO.N,Net-(P8-Pad1)*
X177038000Y-90805000D03*
G04 #@! TD*
D18*
G04 #@! TO.P,C1,2*
G04 #@! TO.N,GND*
X138383000Y-105410000D03*
G04 #@! TO.P,C1,1*
G04 #@! TO.N,Net-(C1-Pad1)*
X143383000Y-105410000D03*
G04 #@! TD*
G04 #@! TO.P,C2,2*
G04 #@! TO.N,GND*
X167513000Y-115015000D03*
G04 #@! TO.P,C2,1*
G04 #@! TO.N,/A1*
X167513000Y-120015000D03*
G04 #@! TD*
G04 #@! TO.P,C3,2*
G04 #@! TO.N,GND*
X167195500Y-89932500D03*
G04 #@! TO.P,C3,1*
G04 #@! TO.N,5V*
X167195500Y-94932500D03*
G04 #@! TD*
G04 #@! TO.P,C4,2*
G04 #@! TO.N,Net-(C4-Pad2)*
X141478000Y-84535000D03*
G04 #@! TO.P,C4,1*
G04 #@! TO.N,Net-(C4-Pad1)*
X141478000Y-89535000D03*
G04 #@! TD*
D19*
G04 #@! TO.P,R1,2*
G04 #@! TO.N,GND*
X138303000Y-109855000D03*
D20*
G04 #@! TO.P,R1,1*
G04 #@! TO.N,Net-(C1-Pad1)*
X143383000Y-109855000D03*
G04 #@! TD*
D19*
G04 #@! TO.P,R2,2*
G04 #@! TO.N,GND*
X135763000Y-84455000D03*
D20*
G04 #@! TO.P,R2,1*
G04 #@! TO.N,Net-(C4-Pad1)*
X135763000Y-89535000D03*
G04 #@! TD*
D19*
G04 #@! TO.P,R3,2*
G04 #@! TO.N,Net-(C4-Pad2)*
X145923000Y-84455000D03*
D20*
G04 #@! TO.P,R3,1*
G04 #@! TO.N,Net-(C4-Pad1)*
X145923000Y-89535000D03*
G04 #@! TD*
D19*
G04 #@! TO.P,R5,2*
G04 #@! TO.N,Net-(R5-Pad2)*
X138303000Y-100330000D03*
D20*
G04 #@! TO.P,R5,1*
G04 #@! TO.N,Net-(C1-Pad1)*
X143383000Y-100330000D03*
G04 #@! TD*
D19*
G04 #@! TO.P,R6,2*
G04 #@! TO.N,Net-(C4-Pad2)*
X167513000Y-100965000D03*
D20*
G04 #@! TO.P,R6,1*
G04 #@! TO.N,/A1*
X167513000Y-106045000D03*
G04 #@! TD*
D10*
G04 #@! TO.P,U2,8*
G04 #@! TO.N,Net-(U2-Pad8)*
X157988000Y-91440000D03*
G04 #@! TO.P,U2,4*
G04 #@! TO.N,GND*
X150368000Y-99060000D03*
G04 #@! TO.P,U2,7*
G04 #@! TO.N,5V*
X157988000Y-93980000D03*
G04 #@! TO.P,U2,3*
G04 #@! TO.N,Net-(C1-Pad1)*
X150368000Y-96520000D03*
G04 #@! TO.P,U2,6*
G04 #@! TO.N,Net-(C4-Pad2)*
X157988000Y-96520000D03*
G04 #@! TO.P,U2,2*
G04 #@! TO.N,Net-(C4-Pad1)*
X150368000Y-93980000D03*
G04 #@! TO.P,U2,5*
G04 #@! TO.N,Net-(U2-Pad5)*
X157988000Y-99060000D03*
D11*
G04 #@! TO.P,U2,1*
G04 #@! TO.N,Net-(U2-Pad1)*
X150368000Y-91440000D03*
G04 #@! TD*
D21*
G04 #@! TO.P,U3,1*
G04 #@! TO.N,3V3*
X124968000Y-105410000D03*
D22*
G04 #@! TO.P,U3,2*
G04 #@! TO.N,Net-(R5-Pad2)*
X127508000Y-107950000D03*
G04 #@! TO.P,U3,3*
G04 #@! TO.N,N/C*
X130048000Y-105410000D03*
G04 #@! TO.P,U3,4*
X127508000Y-102870000D03*
G04 #@! TD*
D23*
G04 #@! TO.N,/Reset*
X117983000Y-107950000D02*
X119888000Y-107950000D01*
X140843000Y-120650000D02*
X144018000Y-123825000D01*
X128778000Y-120650000D02*
X140843000Y-120650000D01*
X121793000Y-113665000D02*
X128778000Y-120650000D01*
X121793000Y-109855000D02*
X121793000Y-113665000D01*
X119888000Y-107950000D02*
X121793000Y-109855000D01*
G04 #@! TO.N,GND*
X150348002Y-101830000D02*
X150348002Y-108685002D01*
X150348002Y-108685002D02*
X150368000Y-108705000D01*
X117983000Y-100330000D02*
X119253000Y-100330000D01*
X119253000Y-100330000D02*
X121793000Y-97790000D01*
X121793000Y-97790000D02*
X130683000Y-97790000D01*
X130683000Y-97790000D02*
X130763000Y-97790000D01*
X130763000Y-97790000D02*
X138383000Y-105410000D01*
X138303000Y-109855000D02*
X138303000Y-105490000D01*
X138303000Y-105490000D02*
X138383000Y-105410000D01*
X138383000Y-105410000D02*
X140923000Y-102870000D01*
X140923000Y-102870000D02*
X147193000Y-102870000D01*
X147193000Y-102870000D02*
X148233000Y-101830000D01*
X148233000Y-101830000D02*
X150348002Y-101830000D01*
X169418000Y-84375000D02*
X169418000Y-87710000D01*
X169418000Y-87710000D02*
X167195500Y-89932500D01*
X167513000Y-114935000D02*
X171958000Y-110490000D01*
X171958000Y-110490000D02*
X171958000Y-86915000D01*
X171958000Y-86915000D02*
X169418000Y-84375000D01*
X167513000Y-115015000D02*
X167513000Y-114935000D01*
X166323000Y-81280000D02*
X169418000Y-84375000D01*
X142113000Y-81280000D02*
X166323000Y-81280000D01*
X137414000Y-76581000D02*
X142113000Y-81280000D01*
X137414000Y-75565000D02*
X137414000Y-76581000D01*
X130683000Y-89535000D02*
X135763000Y-84455000D01*
X130683000Y-97790000D02*
X130683000Y-89535000D01*
X137414000Y-82804000D02*
X135763000Y-84455000D01*
X137414000Y-75565000D02*
X137414000Y-82804000D01*
X162988000Y-115015000D02*
X154178000Y-123825000D01*
X167513000Y-115015000D02*
X162988000Y-115015000D01*
X151638000Y-123825000D02*
X154178000Y-123825000D01*
X150368000Y-99060000D02*
X150368000Y-101810002D01*
X150368000Y-101810002D02*
X150348002Y-101830000D01*
G04 #@! TO.N,5V*
X157988000Y-93980000D02*
X166243000Y-93980000D01*
X166243000Y-93980000D02*
X167195500Y-94932500D01*
X149098000Y-123825000D02*
X159258000Y-113665000D01*
X159258000Y-102870000D02*
X167195500Y-94932500D01*
X159258000Y-113665000D02*
X159258000Y-102870000D01*
G04 #@! TO.N,3V3*
X146558000Y-123825000D02*
X146558000Y-114935000D01*
X146558000Y-114935000D02*
X146558000Y-113030000D01*
X146558000Y-113030000D02*
X148383000Y-111205000D01*
X148383000Y-111205000D02*
X150368000Y-111205000D01*
X117983000Y-105410000D02*
X124968000Y-105410000D01*
X150368000Y-111205000D02*
X145843000Y-111205000D01*
X124968000Y-113030000D02*
X124968000Y-105410000D01*
X126238000Y-114300000D02*
X124968000Y-113030000D01*
X142748000Y-114300000D02*
X126238000Y-114300000D01*
X145843000Y-111205000D02*
X142748000Y-114300000D01*
G04 #@! TD*
M02*
