G04 #@! TF.GenerationSoftware,KiCad,Pcbnew,(5.0.0)*
G04 #@! TF.CreationDate,2018-11-13T08:44:11+01:00*
G04 #@! TF.ProjectId,UNO,554E4F2E6B696361645F706362000000,rev?*
G04 #@! TF.SameCoordinates,Original*
G04 #@! TF.FileFunction,Copper,L2,Bot,Signal*
G04 #@! TF.FilePolarity,Positive*
%FSLAX46Y46*%
G04 Gerber Fmt 4.6, Leading zero omitted, Abs format (unit mm)*
G04 Created by KiCad (PCBNEW (5.0.0)) date 11/13/18 08:44:11*
%MOMM*%
%LPD*%
G01*
G04 APERTURE LIST*
G04 #@! TA.AperFunction,NonConductor*
%ADD10C,0.250000*%
G04 #@! TD*
G04 #@! TA.AperFunction,ComponentPad*
%ADD11O,2.400000X1.600000*%
G04 #@! TD*
G04 #@! TA.AperFunction,ComponentPad*
%ADD12R,2.400000X1.600000*%
G04 #@! TD*
G04 #@! TA.AperFunction,ComponentPad*
%ADD13C,1.524000*%
G04 #@! TD*
G04 #@! TA.AperFunction,ComponentPad*
%ADD14R,1.524000X1.524000*%
G04 #@! TD*
G04 #@! TA.AperFunction,ComponentPad*
%ADD15R,2.524000X1.524000*%
G04 #@! TD*
G04 #@! TA.AperFunction,ComponentPad*
%ADD16O,2.524000X1.524000*%
G04 #@! TD*
G04 #@! TA.AperFunction,ComponentPad*
%ADD17O,1.727200X2.032000*%
G04 #@! TD*
G04 #@! TA.AperFunction,ComponentPad*
%ADD18C,4.064000*%
G04 #@! TD*
G04 #@! TA.AperFunction,ComponentPad*
%ADD19C,1.600000*%
G04 #@! TD*
G04 #@! TA.AperFunction,ComponentPad*
%ADD20O,1.400000X1.400000*%
G04 #@! TD*
G04 #@! TA.AperFunction,ComponentPad*
%ADD21C,1.400000*%
G04 #@! TD*
G04 #@! TA.AperFunction,ComponentPad*
%ADD22R,1.800000X1.800000*%
G04 #@! TD*
G04 #@! TA.AperFunction,ComponentPad*
%ADD23O,1.800000X1.800000*%
G04 #@! TD*
G04 #@! TA.AperFunction,Conductor*
%ADD24C,0.800000*%
G04 #@! TD*
G04 APERTURE END LIST*
D10*
X172565380Y-101743809D02*
X171565380Y-101743809D01*
X171565380Y-102124761D01*
X171613000Y-102220000D01*
X171660619Y-102267619D01*
X171755857Y-102315238D01*
X171898714Y-102315238D01*
X171993952Y-102267619D01*
X172041571Y-102220000D01*
X172089190Y-102124761D01*
X172089190Y-101743809D01*
X172470142Y-103315238D02*
X172517761Y-103267619D01*
X172565380Y-103124761D01*
X172565380Y-103029523D01*
X172517761Y-102886666D01*
X172422523Y-102791428D01*
X172327285Y-102743809D01*
X172136809Y-102696190D01*
X171993952Y-102696190D01*
X171803476Y-102743809D01*
X171708238Y-102791428D01*
X171613000Y-102886666D01*
X171565380Y-103029523D01*
X171565380Y-103124761D01*
X171613000Y-103267619D01*
X171660619Y-103315238D01*
X172041571Y-104077142D02*
X172089190Y-104220000D01*
X172136809Y-104267619D01*
X172232047Y-104315238D01*
X172374904Y-104315238D01*
X172470142Y-104267619D01*
X172517761Y-104220000D01*
X172565380Y-104124761D01*
X172565380Y-103743809D01*
X171565380Y-103743809D01*
X171565380Y-104077142D01*
X171613000Y-104172380D01*
X171660619Y-104220000D01*
X171755857Y-104267619D01*
X171851095Y-104267619D01*
X171946333Y-104220000D01*
X171993952Y-104172380D01*
X172041571Y-104077142D01*
X172041571Y-103743809D01*
X172470142Y-106077142D02*
X172517761Y-106029523D01*
X172565380Y-105886666D01*
X172565380Y-105791428D01*
X172517761Y-105648571D01*
X172422523Y-105553333D01*
X172327285Y-105505714D01*
X172136809Y-105458095D01*
X171993952Y-105458095D01*
X171803476Y-105505714D01*
X171708238Y-105553333D01*
X171613000Y-105648571D01*
X171565380Y-105791428D01*
X171565380Y-105886666D01*
X171613000Y-106029523D01*
X171660619Y-106077142D01*
X172565380Y-106934285D02*
X172041571Y-106934285D01*
X171946333Y-106886666D01*
X171898714Y-106791428D01*
X171898714Y-106600952D01*
X171946333Y-106505714D01*
X172517761Y-106934285D02*
X172565380Y-106839047D01*
X172565380Y-106600952D01*
X172517761Y-106505714D01*
X172422523Y-106458095D01*
X172327285Y-106458095D01*
X172232047Y-106505714D01*
X172184428Y-106600952D01*
X172184428Y-106839047D01*
X172136809Y-106934285D01*
X171898714Y-107410476D02*
X172898714Y-107410476D01*
X171946333Y-107410476D02*
X171898714Y-107505714D01*
X171898714Y-107696190D01*
X171946333Y-107791428D01*
X171993952Y-107839047D01*
X172089190Y-107886666D01*
X172374904Y-107886666D01*
X172470142Y-107839047D01*
X172517761Y-107791428D01*
X172565380Y-107696190D01*
X172565380Y-107505714D01*
X172517761Y-107410476D01*
X171898714Y-108172380D02*
X171898714Y-108553333D01*
X171565380Y-108315238D02*
X172422523Y-108315238D01*
X172517761Y-108362857D01*
X172565380Y-108458095D01*
X172565380Y-108553333D01*
X172517761Y-109267619D02*
X172565380Y-109172380D01*
X172565380Y-108981904D01*
X172517761Y-108886666D01*
X172422523Y-108839047D01*
X172041571Y-108839047D01*
X171946333Y-108886666D01*
X171898714Y-108981904D01*
X171898714Y-109172380D01*
X171946333Y-109267619D01*
X172041571Y-109315238D01*
X172136809Y-109315238D01*
X172232047Y-108839047D01*
X171898714Y-110172380D02*
X172565380Y-110172380D01*
X171898714Y-109743809D02*
X172422523Y-109743809D01*
X172517761Y-109791428D01*
X172565380Y-109886666D01*
X172565380Y-110029523D01*
X172517761Y-110124761D01*
X172470142Y-110172380D01*
X172565380Y-110648571D02*
X171898714Y-110648571D01*
X172089190Y-110648571D02*
X171993952Y-110696190D01*
X171946333Y-110743809D01*
X171898714Y-110839047D01*
X171898714Y-110934285D01*
X172565380Y-112458095D02*
X171565380Y-112458095D01*
X172517761Y-112458095D02*
X172565380Y-112362857D01*
X172565380Y-112172380D01*
X172517761Y-112077142D01*
X172470142Y-112029523D01*
X172374904Y-111981904D01*
X172089190Y-111981904D01*
X171993952Y-112029523D01*
X171946333Y-112077142D01*
X171898714Y-112172380D01*
X171898714Y-112362857D01*
X171946333Y-112458095D01*
X172517761Y-113315238D02*
X172565380Y-113219999D01*
X172565380Y-113029523D01*
X172517761Y-112934285D01*
X172422523Y-112886666D01*
X172041571Y-112886666D01*
X171946333Y-112934285D01*
X171898714Y-113029523D01*
X171898714Y-113219999D01*
X171946333Y-113315238D01*
X172041571Y-113362857D01*
X172136809Y-113362857D01*
X172232047Y-112886666D01*
X171898714Y-114981904D02*
X172708238Y-114981904D01*
X172803476Y-114934285D01*
X172851095Y-114886666D01*
X172898714Y-114791428D01*
X172898714Y-114648571D01*
X172851095Y-114553333D01*
X172517761Y-114981904D02*
X172565380Y-114886666D01*
X172565380Y-114696190D01*
X172517761Y-114600952D01*
X172470142Y-114553333D01*
X172374904Y-114505714D01*
X172089190Y-114505714D01*
X171993952Y-114553333D01*
X171946333Y-114600952D01*
X171898714Y-114696190D01*
X171898714Y-114886666D01*
X171946333Y-114981904D01*
X172565380Y-115886666D02*
X172041571Y-115886666D01*
X171946333Y-115839047D01*
X171898714Y-115743809D01*
X171898714Y-115553333D01*
X171946333Y-115458095D01*
X172517761Y-115886666D02*
X172565380Y-115791428D01*
X172565380Y-115553333D01*
X172517761Y-115458095D01*
X172422523Y-115410476D01*
X172327285Y-115410476D01*
X172232047Y-115458095D01*
X172184428Y-115553333D01*
X172184428Y-115791428D01*
X172136809Y-115886666D01*
X171898714Y-116267619D02*
X171898714Y-116791428D01*
X172565380Y-116267619D01*
X172565380Y-116791428D01*
X173791571Y-104148571D02*
X173791571Y-104481904D01*
X174315380Y-104624761D02*
X174315380Y-104148571D01*
X173315380Y-104148571D01*
X173315380Y-104624761D01*
X174315380Y-105196190D02*
X174267761Y-105100952D01*
X174172523Y-105053333D01*
X173315380Y-105053333D01*
X174315380Y-105577142D02*
X173648714Y-105577142D01*
X173315380Y-105577142D02*
X173363000Y-105529523D01*
X173410619Y-105577142D01*
X173363000Y-105624761D01*
X173315380Y-105577142D01*
X173410619Y-105577142D01*
X174267761Y-106434285D02*
X174315380Y-106339047D01*
X174315380Y-106148571D01*
X174267761Y-106053333D01*
X174172523Y-106005714D01*
X173791571Y-106005714D01*
X173696333Y-106053333D01*
X173648714Y-106148571D01*
X173648714Y-106339047D01*
X173696333Y-106434285D01*
X173791571Y-106481904D01*
X173886809Y-106481904D01*
X173982047Y-106005714D01*
X173315380Y-107529523D02*
X173315380Y-108100952D01*
X174315380Y-107815238D02*
X173315380Y-107815238D01*
X174315380Y-108862857D02*
X173791571Y-108862857D01*
X173696333Y-108815238D01*
X173648714Y-108720000D01*
X173648714Y-108529523D01*
X173696333Y-108434285D01*
X174267761Y-108862857D02*
X174315380Y-108767619D01*
X174315380Y-108529523D01*
X174267761Y-108434285D01*
X174172523Y-108386666D01*
X174077285Y-108386666D01*
X173982047Y-108434285D01*
X173934428Y-108529523D01*
X173934428Y-108767619D01*
X173886809Y-108862857D01*
X174315380Y-109339047D02*
X173648714Y-109339047D01*
X173315380Y-109339047D02*
X173363000Y-109291428D01*
X173410619Y-109339047D01*
X173363000Y-109386666D01*
X173315380Y-109339047D01*
X173410619Y-109339047D01*
X174315380Y-109958095D02*
X174267761Y-109862857D01*
X174172523Y-109815238D01*
X173315380Y-109815238D01*
X174315380Y-110481904D02*
X174267761Y-110386666D01*
X174172523Y-110339047D01*
X173315380Y-110339047D01*
X174315380Y-111291428D02*
X173791571Y-111291428D01*
X173696333Y-111243809D01*
X173648714Y-111148571D01*
X173648714Y-110958095D01*
X173696333Y-110862857D01*
X174267761Y-111291428D02*
X174315380Y-111196190D01*
X174315380Y-110958095D01*
X174267761Y-110862857D01*
X174172523Y-110815238D01*
X174077285Y-110815238D01*
X173982047Y-110862857D01*
X173934428Y-110958095D01*
X173934428Y-111196190D01*
X173886809Y-111291428D01*
X174315380Y-111767619D02*
X173648714Y-111767619D01*
X173839190Y-111767619D02*
X173743952Y-111815238D01*
X173696333Y-111862857D01*
X173648714Y-111958095D01*
X173648714Y-112053333D01*
X174315380Y-112815238D02*
X173315380Y-112815238D01*
X174267761Y-112815238D02*
X174315380Y-112720000D01*
X174315380Y-112529523D01*
X174267761Y-112434285D01*
X174220142Y-112386666D01*
X174124904Y-112339047D01*
X173839190Y-112339047D01*
X173743952Y-112386666D01*
X173696333Y-112434285D01*
X173648714Y-112529523D01*
X173648714Y-112720000D01*
X173696333Y-112815238D01*
X174315380Y-113720000D02*
X173791571Y-113720000D01*
X173696333Y-113672380D01*
X173648714Y-113577142D01*
X173648714Y-113386666D01*
X173696333Y-113291428D01*
X174267761Y-113720000D02*
X174315380Y-113624761D01*
X174315380Y-113386666D01*
X174267761Y-113291428D01*
X174172523Y-113243809D01*
X174077285Y-113243809D01*
X173982047Y-113291428D01*
X173934428Y-113386666D01*
X173934428Y-113624761D01*
X173886809Y-113720000D01*
X173648714Y-114053333D02*
X173648714Y-114434285D01*
X173315380Y-114196190D02*
X174172523Y-114196190D01*
X174267761Y-114243809D01*
X174315380Y-114339047D01*
X174315380Y-114434285D01*
X176017761Y-102934285D02*
X176065380Y-103077142D01*
X176065380Y-103315238D01*
X176017761Y-103410476D01*
X175970142Y-103458095D01*
X175874904Y-103505714D01*
X175779666Y-103505714D01*
X175684428Y-103458095D01*
X175636809Y-103410476D01*
X175589190Y-103315238D01*
X175541571Y-103124761D01*
X175493952Y-103029523D01*
X175446333Y-102981904D01*
X175351095Y-102934285D01*
X175255857Y-102934285D01*
X175160619Y-102981904D01*
X175113000Y-103029523D01*
X175065380Y-103124761D01*
X175065380Y-103362857D01*
X175113000Y-103505714D01*
X176065380Y-104077142D02*
X176017761Y-103981904D01*
X175970142Y-103934285D01*
X175874904Y-103886666D01*
X175589190Y-103886666D01*
X175493952Y-103934285D01*
X175446333Y-103981904D01*
X175398714Y-104077142D01*
X175398714Y-104220000D01*
X175446333Y-104315238D01*
X175493952Y-104362857D01*
X175589190Y-104410476D01*
X175874904Y-104410476D01*
X175970142Y-104362857D01*
X176017761Y-104315238D01*
X176065380Y-104220000D01*
X176065380Y-104077142D01*
X175398714Y-104839047D02*
X176398714Y-104839047D01*
X175446333Y-104839047D02*
X175398714Y-104934285D01*
X175398714Y-105124761D01*
X175446333Y-105220000D01*
X175493952Y-105267619D01*
X175589190Y-105315238D01*
X175874904Y-105315238D01*
X175970142Y-105267619D01*
X176017761Y-105220000D01*
X176065380Y-105124761D01*
X176065380Y-104934285D01*
X176017761Y-104839047D01*
X176065380Y-105743809D02*
X175065380Y-105743809D01*
X176065380Y-106172380D02*
X175541571Y-106172380D01*
X175446333Y-106124761D01*
X175398714Y-106029523D01*
X175398714Y-105886666D01*
X175446333Y-105791428D01*
X175493952Y-105743809D01*
X176065380Y-106648571D02*
X175398714Y-106648571D01*
X175065380Y-106648571D02*
X175113000Y-106600952D01*
X175160619Y-106648571D01*
X175113000Y-106696190D01*
X175065380Y-106648571D01*
X175160619Y-106648571D01*
X176017761Y-107505714D02*
X176065380Y-107410476D01*
X176065380Y-107220000D01*
X176017761Y-107124761D01*
X175922523Y-107077142D01*
X175541571Y-107077142D01*
X175446333Y-107124761D01*
X175398714Y-107220000D01*
X175398714Y-107410476D01*
X175446333Y-107505714D01*
X175541571Y-107553333D01*
X175636809Y-107553333D01*
X175732047Y-107077142D01*
X176065380Y-109315238D02*
X175589190Y-108981904D01*
X176065380Y-108743809D02*
X175065380Y-108743809D01*
X175065380Y-109124761D01*
X175113000Y-109220000D01*
X175160619Y-109267619D01*
X175255857Y-109315238D01*
X175398714Y-109315238D01*
X175493952Y-109267619D01*
X175541571Y-109220000D01*
X175589190Y-109124761D01*
X175589190Y-108743809D01*
X176065380Y-109886666D02*
X176017761Y-109791428D01*
X175970142Y-109743809D01*
X175874904Y-109696190D01*
X175589190Y-109696190D01*
X175493952Y-109743809D01*
X175446333Y-109791428D01*
X175398714Y-109886666D01*
X175398714Y-110029523D01*
X175446333Y-110124761D01*
X175493952Y-110172380D01*
X175589190Y-110220000D01*
X175874904Y-110220000D01*
X175970142Y-110172380D01*
X176017761Y-110124761D01*
X176065380Y-110029523D01*
X176065380Y-109886666D01*
X175398714Y-111077142D02*
X176065380Y-111077142D01*
X175398714Y-110648571D02*
X175922523Y-110648571D01*
X176017761Y-110696190D01*
X176065380Y-110791428D01*
X176065380Y-110934285D01*
X176017761Y-111029523D01*
X175970142Y-111077142D01*
X175398714Y-111981904D02*
X176208238Y-111981904D01*
X176303476Y-111934285D01*
X176351095Y-111886666D01*
X176398714Y-111791428D01*
X176398714Y-111648571D01*
X176351095Y-111553333D01*
X176017761Y-111981904D02*
X176065380Y-111886666D01*
X176065380Y-111696190D01*
X176017761Y-111600952D01*
X175970142Y-111553333D01*
X175874904Y-111505714D01*
X175589190Y-111505714D01*
X175493952Y-111553333D01*
X175446333Y-111600952D01*
X175398714Y-111696190D01*
X175398714Y-111886666D01*
X175446333Y-111981904D01*
X176017761Y-112839047D02*
X176065380Y-112743809D01*
X176065380Y-112553333D01*
X176017761Y-112458095D01*
X175922523Y-112410476D01*
X175541571Y-112410476D01*
X175446333Y-112458095D01*
X175398714Y-112553333D01*
X175398714Y-112743809D01*
X175446333Y-112839047D01*
X175541571Y-112886666D01*
X175636809Y-112886666D01*
X175732047Y-112410476D01*
X176065380Y-113743809D02*
X175541571Y-113743809D01*
X175446333Y-113696190D01*
X175398714Y-113600952D01*
X175398714Y-113410476D01*
X175446333Y-113315238D01*
X176017761Y-113743809D02*
X176065380Y-113648571D01*
X176065380Y-113410476D01*
X176017761Y-113315238D01*
X175922523Y-113267619D01*
X175827285Y-113267619D01*
X175732047Y-113315238D01*
X175684428Y-113410476D01*
X175684428Y-113648571D01*
X175636809Y-113743809D01*
X175398714Y-114648571D02*
X176065380Y-114648571D01*
X175398714Y-114220000D02*
X175922523Y-114220000D01*
X176017761Y-114267619D01*
X176065380Y-114362857D01*
X176065380Y-114505714D01*
X176017761Y-114600952D01*
X175970142Y-114648571D01*
X176065380Y-115029523D02*
X175398714Y-115553333D01*
X175398714Y-115029523D02*
X176065380Y-115553333D01*
D11*
G04 #@! TO.P,J1,4*
G04 #@! TO.N,GND*
X150368000Y-108705000D03*
G04 #@! TO.P,J1,3*
G04 #@! TO.N,3V3*
X150368000Y-111205000D03*
G04 #@! TO.P,J1,2*
G04 #@! TO.N,/Analog2*
X150368000Y-113705000D03*
D12*
G04 #@! TO.P,J1,1*
G04 #@! TO.N,/A0*
X150368000Y-116205000D03*
G04 #@! TD*
D13*
G04 #@! TO.P,J2,2*
G04 #@! TO.N,GND*
X169418000Y-84375000D03*
D14*
G04 #@! TO.P,J2,1*
G04 #@! TO.N,/2*
X169418000Y-79375000D03*
G04 #@! TD*
D15*
G04 #@! TO.P,U10,1*
G04 #@! TO.N,/7*
X117983000Y-118110000D03*
D16*
G04 #@! TO.P,U10,2*
G04 #@! TO.N,/8*
X117983000Y-115570000D03*
G04 #@! TO.P,U10,3*
G04 #@! TO.N,Net-(U10-Pad3)*
X117983000Y-113030000D03*
G04 #@! TO.P,U10,4*
G04 #@! TO.N,Net-(U10-Pad4)*
X117983000Y-110490000D03*
G04 #@! TO.P,U10,5*
G04 #@! TO.N,/Reset*
X117983000Y-107950000D03*
G04 #@! TO.P,U10,6*
G04 #@! TO.N,3V3*
X117983000Y-105410000D03*
G04 #@! TO.P,U10,7*
G04 #@! TO.N,Net-(U10-Pad7)*
X117983000Y-102870000D03*
G04 #@! TO.P,U10,8*
G04 #@! TO.N,GND*
X117983000Y-100330000D03*
G04 #@! TD*
D17*
G04 #@! TO.P,P1,8*
G04 #@! TO.N,/Vin*
X156718000Y-123825000D03*
G04 #@! TO.P,P1,7*
G04 #@! TO.N,GND*
X154178000Y-123825000D03*
G04 #@! TO.P,P1,6*
X151638000Y-123825000D03*
G04 #@! TO.P,P1,5*
G04 #@! TO.N,5V*
X149098000Y-123825000D03*
G04 #@! TO.P,P1,4*
G04 #@! TO.N,3V3*
X146558000Y-123825000D03*
G04 #@! TO.P,P1,3*
G04 #@! TO.N,/Reset*
X144018000Y-123825000D03*
G04 #@! TO.P,P1,2*
G04 #@! TO.N,/IOREF*
X141478000Y-123825000D03*
G04 #@! TO.P,P1,1*
G04 #@! TO.N,Net-(P1-Pad1)*
X138938000Y-123825000D03*
G04 #@! TD*
G04 #@! TO.P,P2,6*
G04 #@! TO.N,/A5*
X174498000Y-123825000D03*
G04 #@! TO.P,P2,5*
G04 #@! TO.N,/A4*
X171958000Y-123825000D03*
G04 #@! TO.P,P2,4*
G04 #@! TO.N,/A3*
X169418000Y-123825000D03*
G04 #@! TO.P,P2,3*
G04 #@! TO.N,/A2*
X166878000Y-123825000D03*
G04 #@! TO.P,P2,2*
G04 #@! TO.N,/A1*
X164338000Y-123825000D03*
G04 #@! TO.P,P2,1*
G04 #@! TO.N,/A0*
X161798000Y-123825000D03*
G04 #@! TD*
G04 #@! TO.P,P3,10*
G04 #@! TO.N,/8*
X152654000Y-75565000D03*
G04 #@! TO.P,P3,9*
G04 #@! TO.N,/9(\002A\002A)*
X150114000Y-75565000D03*
G04 #@! TO.P,P3,8*
G04 #@! TO.N,/10(\002A\002A/SS)*
X147574000Y-75565000D03*
G04 #@! TO.P,P3,7*
G04 #@! TO.N,/11(\002A\002A/MOSI)*
X145034000Y-75565000D03*
G04 #@! TO.P,P3,6*
G04 #@! TO.N,/12(MISO)*
X142494000Y-75565000D03*
G04 #@! TO.P,P3,5*
G04 #@! TO.N,/13(SCK)*
X139954000Y-75565000D03*
G04 #@! TO.P,P3,4*
G04 #@! TO.N,GND*
X137414000Y-75565000D03*
G04 #@! TO.P,P3,3*
G04 #@! TO.N,/AREF*
X134874000Y-75565000D03*
G04 #@! TO.P,P3,2*
G04 #@! TO.N,/A4(SDA)*
X132334000Y-75565000D03*
G04 #@! TO.P,P3,1*
G04 #@! TO.N,/A5(SCL)*
X129794000Y-75565000D03*
G04 #@! TD*
G04 #@! TO.P,P4,8*
G04 #@! TO.N,/0(Rx)*
X174498000Y-75565000D03*
G04 #@! TO.P,P4,7*
G04 #@! TO.N,/1(Tx)*
X171958000Y-75565000D03*
G04 #@! TO.P,P4,6*
G04 #@! TO.N,/2*
X169418000Y-75565000D03*
G04 #@! TO.P,P4,5*
G04 #@! TO.N,/3(\002A\002A)*
X166878000Y-75565000D03*
G04 #@! TO.P,P4,4*
G04 #@! TO.N,/4*
X164338000Y-75565000D03*
G04 #@! TO.P,P4,3*
G04 #@! TO.N,/5(\002A\002A)*
X161798000Y-75565000D03*
G04 #@! TO.P,P4,2*
G04 #@! TO.N,/6(\002A\002A)*
X159258000Y-75565000D03*
G04 #@! TO.P,P4,1*
G04 #@! TO.N,/7*
X156718000Y-75565000D03*
G04 #@! TD*
D18*
G04 #@! TO.P,P5,1*
G04 #@! TO.N,Net-(P5-Pad1)*
X124968000Y-123825000D03*
G04 #@! TD*
G04 #@! TO.P,P6,1*
G04 #@! TO.N,Net-(P6-Pad1)*
X177038000Y-118745000D03*
G04 #@! TD*
G04 #@! TO.P,P7,1*
G04 #@! TO.N,Net-(P7-Pad1)*
X126238000Y-75565000D03*
G04 #@! TD*
G04 #@! TO.P,P8,1*
G04 #@! TO.N,Net-(P8-Pad1)*
X177038000Y-90805000D03*
G04 #@! TD*
D19*
G04 #@! TO.P,C1,2*
G04 #@! TO.N,GND*
X138383000Y-105410000D03*
G04 #@! TO.P,C1,1*
G04 #@! TO.N,Net-(C1-Pad1)*
X143383000Y-105410000D03*
G04 #@! TD*
G04 #@! TO.P,C2,2*
G04 #@! TO.N,GND*
X167513000Y-115015000D03*
G04 #@! TO.P,C2,1*
G04 #@! TO.N,/A1*
X167513000Y-120015000D03*
G04 #@! TD*
G04 #@! TO.P,C3,2*
G04 #@! TO.N,GND*
X167195500Y-89932500D03*
G04 #@! TO.P,C3,1*
G04 #@! TO.N,5V*
X167195500Y-94932500D03*
G04 #@! TD*
G04 #@! TO.P,C4,2*
G04 #@! TO.N,Net-(C4-Pad2)*
X141478000Y-84535000D03*
G04 #@! TO.P,C4,1*
G04 #@! TO.N,Net-(C4-Pad1)*
X141478000Y-89535000D03*
G04 #@! TD*
D20*
G04 #@! TO.P,R1,2*
G04 #@! TO.N,GND*
X138303000Y-109855000D03*
D21*
G04 #@! TO.P,R1,1*
G04 #@! TO.N,Net-(C1-Pad1)*
X143383000Y-109855000D03*
G04 #@! TD*
D20*
G04 #@! TO.P,R2,2*
G04 #@! TO.N,GND*
X135763000Y-84455000D03*
D21*
G04 #@! TO.P,R2,1*
G04 #@! TO.N,Net-(C4-Pad1)*
X135763000Y-89535000D03*
G04 #@! TD*
D20*
G04 #@! TO.P,R3,2*
G04 #@! TO.N,Net-(C4-Pad2)*
X145923000Y-84455000D03*
D21*
G04 #@! TO.P,R3,1*
G04 #@! TO.N,Net-(C4-Pad1)*
X145923000Y-89535000D03*
G04 #@! TD*
D20*
G04 #@! TO.P,R5,2*
G04 #@! TO.N,Net-(R5-Pad2)*
X138303000Y-100330000D03*
D21*
G04 #@! TO.P,R5,1*
G04 #@! TO.N,Net-(C1-Pad1)*
X143383000Y-100330000D03*
G04 #@! TD*
D20*
G04 #@! TO.P,R6,2*
G04 #@! TO.N,Net-(C4-Pad2)*
X167513000Y-100965000D03*
D21*
G04 #@! TO.P,R6,1*
G04 #@! TO.N,/A1*
X167513000Y-106045000D03*
G04 #@! TD*
D11*
G04 #@! TO.P,U2,8*
G04 #@! TO.N,Net-(U2-Pad8)*
X157988000Y-91440000D03*
G04 #@! TO.P,U2,4*
G04 #@! TO.N,GND*
X150368000Y-99060000D03*
G04 #@! TO.P,U2,7*
G04 #@! TO.N,5V*
X157988000Y-93980000D03*
G04 #@! TO.P,U2,3*
G04 #@! TO.N,Net-(C1-Pad1)*
X150368000Y-96520000D03*
G04 #@! TO.P,U2,6*
G04 #@! TO.N,Net-(C4-Pad2)*
X157988000Y-96520000D03*
G04 #@! TO.P,U2,2*
G04 #@! TO.N,Net-(C4-Pad1)*
X150368000Y-93980000D03*
G04 #@! TO.P,U2,5*
G04 #@! TO.N,Net-(U2-Pad5)*
X157988000Y-99060000D03*
D12*
G04 #@! TO.P,U2,1*
G04 #@! TO.N,Net-(U2-Pad1)*
X150368000Y-91440000D03*
G04 #@! TD*
D22*
G04 #@! TO.P,U3,1*
G04 #@! TO.N,3V3*
X124968000Y-105410000D03*
D23*
G04 #@! TO.P,U3,2*
G04 #@! TO.N,Net-(R5-Pad2)*
X127508000Y-107950000D03*
G04 #@! TO.P,U3,3*
G04 #@! TO.N,N/C*
X130048000Y-105410000D03*
G04 #@! TO.P,U3,4*
X127508000Y-102870000D03*
G04 #@! TD*
D24*
G04 #@! TO.N,/A0*
X150368000Y-116205000D02*
X154178000Y-116205000D01*
X154178000Y-116205000D02*
X161798000Y-123825000D01*
G04 #@! TO.N,/A1*
X167513000Y-120015000D02*
X167513000Y-120650000D01*
X167513000Y-120650000D02*
X164338000Y-123825000D01*
X167513000Y-106045000D02*
X164338000Y-109220000D01*
X166243000Y-120015000D02*
X167513000Y-120015000D01*
X164338000Y-118110000D02*
X166243000Y-120015000D01*
X164338000Y-109220000D02*
X164338000Y-118110000D01*
G04 #@! TO.N,/8*
X152654000Y-75565000D02*
X152654000Y-76454000D01*
X116713000Y-115570000D02*
X117983000Y-115570000D01*
X112903000Y-111760000D02*
X116713000Y-115570000D01*
X112903000Y-97155000D02*
X112903000Y-111760000D01*
X114173000Y-95885000D02*
X112903000Y-97155000D01*
X120523000Y-95885000D02*
X114173000Y-95885000D01*
X122428000Y-93980000D02*
X120523000Y-95885000D01*
X122428000Y-85090000D02*
X122428000Y-93980000D01*
X128778000Y-78740000D02*
X122428000Y-85090000D01*
X150368000Y-78740000D02*
X128778000Y-78740000D01*
X152654000Y-76454000D02*
X150368000Y-78740000D01*
G04 #@! TO.N,/7*
X117983000Y-118110000D02*
X120523000Y-118110000D01*
X151003000Y-81280000D02*
X156718000Y-75565000D01*
X131953000Y-81280000D02*
X151003000Y-81280000D01*
X129413000Y-83820000D02*
X131953000Y-81280000D01*
X129413000Y-90170000D02*
X129413000Y-83820000D01*
X121158000Y-98425000D02*
X129413000Y-90170000D01*
X121158000Y-117475000D02*
X121158000Y-98425000D01*
X120523000Y-118110000D02*
X121158000Y-117475000D01*
G04 #@! TO.N,/2*
X169418000Y-75565000D02*
X169418000Y-79375000D01*
G04 #@! TO.N,Net-(C1-Pad1)*
X143383000Y-105410000D02*
X143383000Y-100330000D01*
X143383000Y-109855000D02*
X143383000Y-105410000D01*
X150368000Y-96520000D02*
X147193000Y-96520000D01*
X147193000Y-96520000D02*
X143383000Y-100330000D01*
G04 #@! TO.N,Net-(C4-Pad2)*
X141478000Y-84535000D02*
X145843000Y-84535000D01*
X145843000Y-84535000D02*
X145923000Y-84455000D01*
X145923000Y-84455000D02*
X156718000Y-84455000D01*
X159893000Y-96520000D02*
X157988000Y-96520000D01*
X161798000Y-94615000D02*
X159893000Y-96520000D01*
X161798000Y-89535000D02*
X161798000Y-94615000D01*
X156718000Y-84455000D02*
X161798000Y-89535000D01*
X167513000Y-100965000D02*
X165608000Y-100965000D01*
X161163000Y-96520000D02*
X157988000Y-96520000D01*
X165608000Y-100965000D02*
X161163000Y-96520000D01*
G04 #@! TO.N,Net-(C4-Pad1)*
X135763000Y-89535000D02*
X140843000Y-89535000D01*
X145923000Y-89535000D02*
X140843000Y-89535000D01*
X145923000Y-89535000D02*
X145923000Y-92075000D01*
X147828000Y-93980000D02*
X150368000Y-93980000D01*
X145923000Y-92075000D02*
X147828000Y-93980000D01*
G04 #@! TO.N,Net-(R5-Pad2)*
X138303000Y-100330000D02*
X137033000Y-100330000D01*
X127508000Y-111760000D02*
X127508000Y-107950000D01*
X128143000Y-112395000D02*
X127508000Y-111760000D01*
X133223000Y-112395000D02*
X128143000Y-112395000D01*
X133858000Y-111760000D02*
X133223000Y-112395000D01*
X133858000Y-103505000D02*
X133858000Y-111760000D01*
X137033000Y-100330000D02*
X133858000Y-103505000D01*
G04 #@! TD*
M02*
